<svg width="119" height="84" viewBox="0 0 119 84" fill="none" xmlns="http://www.w3.org/2000/svg">
<path fill-rule="evenodd" clip-rule="evenodd" d="M99.9333 1.55631L100.532 0L98.8772 0.204853L88.3233 1.51131L88.569 3.49616L94.6597 2.74219C78.9193 13.1583 70.8925 25.3694 66.8895 34.7734C65.5125 38.0082 64.6119 40.9101 64.0366 43.2918C62.3304 39.3556 59.045 36.1628 54.8971 33.9647C48.7347 30.6991 40.575 29.56 32.447 31.3456C24.3017 33.135 16.1684 37.8655 10.0813 46.3611C3.99695 54.853 0 67.0444 0 83.6973H2C2 67.3623 5.91844 55.6051 11.7071 47.526C17.4931 39.4505 25.1906 34.9874 32.8761 33.299C40.5789 31.6068 48.2499 32.7056 53.9606 35.7319C59.0976 38.4541 62.5724 42.6798 63.2153 47.7996C63.1213 48.6464 63.0942 49.2962 63.1137 49.7037C63.12 49.8365 63.1334 49.9991 63.1699 50.1491C63.1837 50.2056 63.2256 50.3733 63.3422 50.5415C63.3813 50.5978 63.4496 50.6847 63.5547 50.7673V83.416H66.8301V58.4571L67.0332 60.0059L75.5645 83.416H77.291L85.7461 60.0059L85.9746 58.4571V83.416H89.25V47.0059H87.5234L76.5039 76.8653L76.4023 78.211L76.3008 76.8653L65.3136 47.1619C65.317 47.1379 65.3206 47.1138 65.3241 47.0895C65.7009 44.5369 66.6445 40.4555 68.7297 35.5567C72.6955 26.2401 80.7932 13.9595 97.0026 3.6044L95.0513 8.67696L96.9179 9.39502L99.9333 1.55631ZM27.7793 78.4649C28.2533 77.3815 28.4902 76.222 28.4902 74.9864V47.0059H25.2148V74.9864C25.2148 75.7989 25.0625 76.5606 24.7578 77.2715C24.4531 77.9655 24.0384 78.5834 23.5137 79.125C22.9889 79.6498 22.3711 80.0645 21.6602 80.3692C20.9492 80.6739 20.196 80.8262 19.4004 80.8262H18.6641C17.8516 80.8262 17.0898 80.6739 16.3789 80.3692C15.6849 80.0645 15.0671 79.6498 14.5254 79.125C14.0007 78.5834 13.5859 77.9655 13.2812 77.2715C12.9766 76.5606 12.8242 75.7989 12.8242 74.9864V73.0059L9.54883 73.5391V74.9864C9.54883 76.222 9.77734 77.3815 10.2344 78.4649C10.7083 79.5482 11.3516 80.4961 12.1641 81.3086C12.9766 82.1211 13.9245 82.7644 15.0078 83.2383C16.1081 83.6953 17.276 83.9239 18.5117 83.9239H19.5527C20.7884 83.9239 21.9479 83.6953 23.0312 83.2383C24.1146 82.7644 25.0625 82.1211 25.875 81.3086C26.6875 80.4961 27.3223 79.5482 27.7793 78.4649ZM55.0234 78.4649C55.4974 77.3815 55.7344 76.222 55.7344 74.9864V47.0059H52.459V74.9864C52.459 75.7989 52.3066 76.5606 52.002 77.2715C51.6973 77.9655 51.2826 78.5834 50.7578 79.125C50.2331 79.6498 49.6152 80.0645 48.9043 80.3692C48.2103 80.6739 47.457 80.8262 46.6445 80.8262H44.3594C43.5469 80.8262 42.7852 80.6739 42.0742 80.3692C41.3802 80.0645 40.7624 79.6498 40.2207 79.125C39.696 78.5834 39.2812 77.9655 38.9766 77.2715C38.6719 76.5606 38.5195 75.7989 38.5195 74.9864V47.0059H35.2441V74.9864C35.2441 76.222 35.4727 77.3815 35.9297 78.4649C36.4036 79.5482 37.0469 80.4961 37.8594 81.3086C38.6719 82.1211 39.6198 82.7644 40.7031 83.2383C41.8034 83.6953 42.9714 83.9239 44.207 83.9239H46.7969C48.0326 83.9239 49.1921 83.6953 50.2754 83.2383C51.3587 82.7644 52.3066 82.1211 53.1191 81.3086C53.9316 80.4961 54.5664 79.5482 55.0234 78.4649ZM117.357 63.9668C117.831 62.8835 118.068 61.724 118.068 60.4883V55.9688C118.068 54.7331 117.831 53.5736 117.357 52.4903C116.9 51.39 116.266 50.4336 115.453 49.6211C114.641 48.8086 113.684 48.1739 112.584 47.7168C111.501 47.2429 110.341 47.0059 109.105 47.0059H97.5781V83.416H100.854V69.4258H109.105C110.341 69.4258 111.501 69.1973 112.584 68.7403C113.684 68.2663 114.641 67.6231 115.453 66.8106C116.266 65.9981 116.9 65.0502 117.357 63.9668ZM114.336 53.709C114.641 54.403 114.793 55.1563 114.793 55.9688V60.4883C114.793 61.3008 114.641 62.0625 114.336 62.7735C114.031 63.4675 113.608 64.0769 113.066 64.6016C112.542 65.1263 111.924 65.541 111.213 65.8457C110.519 66.1504 109.766 66.3028 108.953 66.3028H100.854V50.1289H108.953C109.766 50.1289 110.519 50.2813 111.213 50.586C111.924 50.8907 112.542 51.3138 113.066 51.8555C113.608 52.3802 114.031 52.9981 114.336 53.709Z" fill="white"/>
</svg>
